# MagicaVoxel @ Ephtracy

# group
o 

# material
mtllib Carro1.mtl
usemtl palette

# normals
vn -1 0 0
vn 1 0 0
vn 0 0 1
vn 0 0 -1
vn 0 -1 0
vn 0 1 0

# texcoords
vt 0.0214844 0.5
vt 0.0410156 0.5
vt 0.705078 0.5
vt 0.845703 0.5
vt 0.966797 0.5
vt 0.994141 0.5

# verts
v -0.5 1.7 0.5
v -0.5 1.7 0.2
v -0.5 1.7 -0.2
v -0.5 1.7 -0.5
v -0.5 1.8 0.4
v -0.5 1.8 0.2
v -0.5 1.8 -0.2
v -0.5 1.8 -0.4
v -0.5 1.9 0.2
v -0.5 1.9 -0.2
v -0.5 2 0.5
v -0.5 2 0.4
v -0.5 2 0.2
v -0.5 2 -0.2
v -0.5 2 -0.4
v -0.5 2 -0.5
v -0.5 2.1 0.3
v -0.5 2.1 -0.3
v -0.5 2.3 0.3
v -0.5 2.3 -0.3
v -0.5 2.4 0.4
v -0.5 2.4 -0.4
v -0.4 1.5 0.5
v -0.4 1.5 0.4
v -0.4 1.5 -0.4
v -0.4 1.5 -0.5
v -0.4 1.7 0.5
v -0.4 1.7 0.4
v -0.4 1.7 -0.4
v -0.4 1.7 -0.5
v -0.4 2 0.5
v -0.4 2 0.4
v -0.4 2 -0.4
v -0.4 2 -0.5
v -0.4 2.1 0.5
v -0.4 2.1 0.4
v -0.4 2.1 -0.4
v -0.4 2.1 -0.5
v -0.3 2.4 0.2
v -0.3 2.4 -0.2
v -0.3 2.5 0.2
v -0.3 2.5 -0.2
v 0 1.5 0.5
v 0 1.5 0.4
v 0 1.5 -0.4
v 0 1.5 -0.5
v 0 1.7 0.5
v 0 1.7 0.4
v 0 1.7 -0.4
v 0 1.7 -0.5
v -0.1 1.5 0.5
v -0.1 1.5 0.4
v -0.1 1.5 -0.4
v -0.1 1.5 -0.5
v -0.1 1.7 0.5
v -0.1 1.7 0.4
v -0.1 1.7 -0.4
v -0.1 1.7 -0.5
v 0.3 1.5 0.5
v 0.3 1.5 0.4
v 0.3 1.5 -0.4
v 0.3 1.5 -0.5
v 0.3 1.7 0.5
v 0.3 1.7 0.4
v 0.3 1.7 -0.4
v 0.3 1.7 -0.5
v 0.3 2 0.5
v 0.3 2 0.4
v 0.3 2 -0.4
v 0.3 2 -0.5
v 0.3 2.1 0.5
v 0.3 2.1 0.4
v 0.3 2.1 -0.4
v 0.3 2.1 -0.5
v 0.3 2.4 0.2
v 0.3 2.4 -0.2
v 0.3 2.5 0.2
v 0.3 2.5 -0.2
v 0.4 1.7 0.5
v 0.4 1.7 0.4
v 0.4 1.7 -0.4
v 0.4 1.7 -0.5
v 0.4 2 0.5
v 0.4 2 0.4
v 0.4 2 -0.4
v 0.4 2 -0.5
v 0.4 2.1 0.4
v 0.4 2.1 0.3
v 0.4 2.1 -0.3
v 0.4 2.1 -0.4
v 0.4 2.3 0.3
v 0.4 2.3 -0.3
v 0.4 2.4 0.4
v 0.4 2.4 -0.4
v 0.5 1.7 0.4
v 0.5 1.7 -0.4
v 0.5 2.1 0.4
v 0.5 2.1 -0.4
v -0.5 1.7 0.5
v -0.5 2 0.5
v -0.4 1.5 0.5
v -0.4 1.7 0.5
v -0.4 1.8 0.5
v -0.4 2 0.5
v -0.4 2.1 0.5
v -0.3 1.6 0.5
v -0.3 1.7 0.5
v -0.2 1.6 0.5
v -0.2 1.7 0.5
v -0.1 1.5 0.5
v -0.1 1.7 0.5
v -0.1 1.8 0.5
v 0 1.5 0.5
v 0 1.7 0.5
v 0 1.8 0.5
v 0.1 1.6 0.5
v 0.1 1.7 0.5
v 0.2 1.6 0.5
v 0.2 1.7 0.5
v 0.3 1.5 0.5
v 0.3 1.7 0.5
v 0.3 1.8 0.5
v 0.3 2 0.5
v 0.3 2.1 0.5
v 0.4 1.7 0.5
v 0.4 2 0.5
v -0.5 2 0.4
v -0.5 2.4 0.4
v -0.4 2 0.4
v -0.4 2.1 0.4
v -0.4 2.3 0.4
v -0.1 2.1 0.4
v -0.1 2.3 0.4
v 0 2.1 0.4
v 0 2.3 0.4
v 0.3 2 0.4
v 0.3 2.1 0.4
v 0.3 2.3 0.4
v 0.4 1.7 0.4
v 0.4 2 0.4
v 0.4 2.1 0.4
v 0.4 2.4 0.4
v 0.5 1.7 0.4
v 0.5 2.1 0.4
v -0.3 2.4 0.2
v -0.3 2.5 0.2
v 0.3 2.4 0.2
v 0.3 2.5 0.2
v -0.4 1.5 -0.4
v -0.4 1.7 -0.4
v -0.3 1.6 -0.4
v -0.3 1.7 -0.4
v -0.2 1.6 -0.4
v -0.2 1.7 -0.4
v -0.1 1.5 -0.4
v -0.1 1.7 -0.4
v 0 1.5 -0.4
v 0 1.7 -0.4
v 0.1 1.6 -0.4
v 0.1 1.7 -0.4
v 0.2 1.6 -0.4
v 0.2 1.7 -0.4
v 0.3 1.5 -0.4
v 0.3 1.7 -0.4
v -0.4 1.5 0.4
v -0.4 1.7 0.4
v -0.3 1.6 0.4
v -0.3 1.7 0.4
v -0.2 1.6 0.4
v -0.2 1.7 0.4
v -0.1 1.5 0.4
v -0.1 1.7 0.4
v 0 1.5 0.4
v 0 1.7 0.4
v 0.1 1.6 0.4
v 0.1 1.7 0.4
v 0.2 1.6 0.4
v 0.2 1.7 0.4
v 0.3 1.5 0.4
v 0.3 1.7 0.4
v -0.3 2.4 -0.2
v -0.3 2.5 -0.2
v 0.3 2.4 -0.2
v 0.3 2.5 -0.2
v -0.5 2 -0.4
v -0.5 2.4 -0.4
v -0.4 2 -0.4
v -0.4 2.1 -0.4
v -0.4 2.3 -0.4
v -0.1 2.1 -0.4
v -0.1 2.3 -0.4
v 0 2.1 -0.4
v 0 2.3 -0.4
v 0.3 2 -0.4
v 0.3 2.1 -0.4
v 0.3 2.3 -0.4
v 0.4 1.7 -0.4
v 0.4 2 -0.4
v 0.4 2.1 -0.4
v 0.4 2.4 -0.4
v 0.5 1.7 -0.4
v 0.5 2.1 -0.4
v -0.5 1.7 -0.5
v -0.5 2 -0.5
v -0.4 1.5 -0.5
v -0.4 1.7 -0.5
v -0.4 1.8 -0.5
v -0.4 2 -0.5
v -0.4 2.1 -0.5
v -0.3 1.6 -0.5
v -0.3 1.7 -0.5
v -0.2 1.6 -0.5
v -0.2 1.7 -0.5
v -0.1 1.5 -0.5
v -0.1 1.7 -0.5
v -0.1 1.8 -0.5
v 0 1.5 -0.5
v 0 1.7 -0.5
v 0 1.8 -0.5
v 0.1 1.6 -0.5
v 0.1 1.7 -0.5
v 0.2 1.6 -0.5
v 0.2 1.7 -0.5
v 0.3 1.5 -0.5
v 0.3 1.7 -0.5
v 0.3 1.8 -0.5
v 0.3 2 -0.5
v 0.3 2.1 -0.5
v 0.4 1.7 -0.5
v 0.4 2 -0.5
v -0.4 1.5 0.5
v -0.1 1.5 0.5
v 0 1.5 0.5
v 0.3 1.5 0.5
v -0.4 1.5 0.4
v -0.1 1.5 0.4
v 0 1.5 0.4
v 0.3 1.5 0.4
v -0.4 1.5 -0.4
v -0.1 1.5 -0.4
v 0 1.5 -0.4
v 0.3 1.5 -0.4
v -0.4 1.5 -0.5
v -0.1 1.5 -0.5
v 0 1.5 -0.5
v 0.3 1.5 -0.5
v -0.5 1.7 0.5
v -0.4 1.7 0.5
v -0.1 1.7 0.5
v 0 1.7 0.5
v 0.3 1.7 0.5
v 0.4 1.7 0.5
v -0.4 1.7 0.4
v -0.3 1.7 0.4
v -0.2 1.7 0.4
v -0.1 1.7 0.4
v 0 1.7 0.4
v 0.1 1.7 0.4
v 0.2 1.7 0.4
v 0.3 1.7 0.4
v 0.4 1.7 0.4
v 0.5 1.7 0.4
v -0.5 1.7 0.2
v -0.4 1.7 0.2
v -0.5 1.7 -0.2
v -0.4 1.7 -0.2
v -0.4 1.7 -0.4
v -0.3 1.7 -0.4
v -0.2 1.7 -0.4
v -0.1 1.7 -0.4
v 0 1.7 -0.4
v 0.1 1.7 -0.4
v 0.2 1.7 -0.4
v 0.3 1.7 -0.4
v 0.4 1.7 -0.4
v 0.5 1.7 -0.4
v -0.5 1.7 -0.5
v -0.4 1.7 -0.5
v -0.1 1.7 -0.5
v 0 1.7 -0.5
v 0.3 1.7 -0.5
v 0.4 1.7 -0.5
v -0.5 2 0.5
v -0.4 2 0.5
v 0.3 2 0.5
v 0.4 2 0.5
v -0.5 2 0.4
v -0.4 2 0.4
v 0.3 2 0.4
v 0.4 2 0.4
v -0.5 2 -0.4
v -0.4 2 -0.4
v 0.3 2 -0.4
v 0.4 2 -0.4
v -0.5 2 -0.5
v -0.4 2 -0.5
v 0.3 2 -0.5
v 0.4 2 -0.5
v -0.4 2.1 0.5
v 0.3 2.1 0.5
v -0.4 2.1 0.4
v -0.1 2.1 0.4
v 0 2.1 0.4
v 0.3 2.1 0.4
v 0.4 2.1 0.4
v 0.5 2.1 0.4
v 0.4 2.1 0.3
v 0.4 2.1 -0.3
v -0.4 2.1 -0.4
v -0.1 2.1 -0.4
v 0 2.1 -0.4
v 0.3 2.1 -0.4
v 0.4 2.1 -0.4
v 0.5 2.1 -0.4
v -0.4 2.1 -0.5
v 0.3 2.1 -0.5
v -0.5 2.4 0.4
v 0.4 2.4 0.4
v -0.3 2.4 0.2
v 0.3 2.4 0.2
v -0.3 2.4 -0.2
v 0.3 2.4 -0.2
v -0.5 2.4 -0.4
v 0.4 2.4 -0.4
v -0.3 2.5 0.2
v 0.3 2.5 0.2
v -0.2 2.5 0.1
v 0.2 2.5 0.1
v -0.2 2.5 -0.1
v 0.2 2.5 -0.1
v -0.3 2.5 -0.2
v 0.3 2.5 -0.2

# faces
f 5/4/1 2/4/1 1/4/1
f 6/5/1 3/5/1 2/5/1
f 6/4/1 2/4/1 5/4/1
f 7/4/1 4/4/1 3/4/1
f 7/5/1 3/5/1 6/5/1
f 8/4/1 4/4/1 7/4/1
f 9/1/1 6/1/1 5/1/1
f 9/5/1 7/5/1 6/5/1
f 10/1/1 8/1/1 7/1/1
f 10/5/1 7/5/1 9/5/1
f 11/4/1 5/4/1 1/4/1
f 12/1/1 9/1/1 5/1/1
f 12/4/1 5/4/1 11/4/1
f 13/4/1 10/4/1 9/4/1
f 13/1/1 9/1/1 12/1/1
f 14/1/1 8/1/1 10/1/1
f 14/4/1 10/4/1 13/4/1
f 15/4/1 4/4/1 8/4/1
f 15/1/1 8/1/1 14/1/1
f 16/4/1 4/4/1 15/4/1
f 17/4/1 14/4/1 13/4/1
f 17/4/1 13/4/1 12/4/1
f 17/4/1 15/4/1 14/4/1
f 18/4/1 15/4/1 17/4/1
f 19/4/1 17/4/1 12/4/1
f 19/3/1 18/3/1 17/3/1
f 20/4/1 15/4/1 18/4/1
f 20/3/1 18/3/1 19/3/1
f 21/4/1 19/4/1 12/4/1
f 21/4/1 20/4/1 19/4/1
f 22/4/1 15/4/1 20/4/1
f 22/4/1 20/4/1 21/4/1
f 27/6/1 24/6/1 23/6/1
f 28/6/1 24/6/1 27/6/1
f 29/6/1 26/6/1 25/6/1
f 30/6/1 26/6/1 29/6/1
f 35/4/1 32/4/1 31/4/1
f 36/4/1 32/4/1 35/4/1
f 37/4/1 34/4/1 33/4/1
f 38/4/1 34/4/1 37/4/1
f 41/3/1 40/3/1 39/3/1
f 42/3/1 40/3/1 41/3/1
f 47/6/1 44/6/1 43/6/1
f 48/6/1 44/6/1 47/6/1
f 49/6/1 46/6/1 45/6/1
f 50/6/1 46/6/1 49/6/1
f 51/6/2 52/6/2 55/6/2
f 55/6/2 52/6/2 56/6/2
f 53/6/2 54/6/2 57/6/2
f 57/6/2 54/6/2 58/6/2
f 59/6/2 60/6/2 63/6/2
f 63/6/2 60/6/2 64/6/2
f 61/6/2 62/6/2 65/6/2
f 65/6/2 62/6/2 66/6/2
f 67/4/2 68/4/2 71/4/2
f 71/4/2 68/4/2 72/4/2
f 69/4/2 70/4/2 73/4/2
f 73/4/2 70/4/2 74/4/2
f 75/3/2 76/3/2 77/3/2
f 77/3/2 76/3/2 78/3/2
f 79/4/2 80/4/2 83/4/2
f 83/4/2 80/4/2 84/4/2
f 81/4/2 82/4/2 85/4/2
f 85/4/2 82/4/2 86/4/2
f 87/4/2 88/4/2 91/4/2
f 88/3/2 89/3/2 91/3/2
f 89/4/2 90/4/2 92/4/2
f 91/3/2 89/3/2 92/3/2
f 87/4/2 91/4/2 93/4/2
f 91/4/2 92/4/2 93/4/2
f 92/4/2 90/4/2 94/4/2
f 93/4/2 92/4/2 94/4/2
f 95/4/2 96/4/2 97/4/2
f 97/4/2 96/4/2 98/4/2
f 102/4/3 100/4/3 99/4/3
f 103/4/3 100/4/3 102/4/3
f 104/4/3 100/4/3 103/4/3
f 106/6/3 102/6/3 101/6/3
f 106/6/3 103/6/3 102/6/3
f 107/6/3 103/6/3 106/6/3
f 108/6/3 106/6/3 101/6/3
f 108/2/3 107/2/3 106/2/3
f 109/6/3 103/6/3 107/6/3
f 109/2/3 107/2/3 108/2/3
f 110/6/3 108/6/3 101/6/3
f 110/6/3 109/6/3 108/6/3
f 111/6/3 103/6/3 109/6/3
f 111/6/3 109/6/3 110/6/3
f 112/4/3 105/4/3 104/4/3
f 112/6/3 103/6/3 111/6/3
f 112/4/3 104/4/3 103/4/3
f 114/4/3 112/4/3 111/4/3
f 115/4/3 105/4/3 112/4/3
f 115/4/3 112/4/3 114/4/3
f 116/6/3 114/6/3 113/6/3
f 116/6/3 115/6/3 114/6/3
f 117/6/3 115/6/3 116/6/3
f 118/6/3 116/6/3 113/6/3
f 118/2/3 117/2/3 116/2/3
f 119/6/3 115/6/3 117/6/3
f 119/2/3 117/2/3 118/2/3
f 120/6/3 118/6/3 113/6/3
f 120/6/3 119/6/3 118/6/3
f 121/6/3 115/6/3 119/6/3
f 121/6/3 119/6/3 120/6/3
f 122/4/3 105/4/3 115/4/3
f 122/6/3 115/6/3 121/6/3
f 123/4/3 105/4/3 122/4/3
f 124/4/3 105/4/3 123/4/3
f 125/4/3 122/4/3 121/4/3
f 125/4/3 123/4/3 122/4/3
f 126/4/3 123/4/3 125/4/3
f 129/4/3 128/4/3 127/4/3
f 130/4/3 128/4/3 129/4/3
f 131/4/3 128/4/3 130/4/3
f 132/3/3 131/3/3 130/3/3
f 133/4/3 128/4/3 131/4/3
f 133/3/3 131/3/3 132/3/3
f 134/4/3 133/4/3 132/4/3
f 135/4/3 128/4/3 133/4/3
f 135/4/3 133/4/3 134/4/3
f 137/3/3 135/3/3 134/3/3
f 138/4/3 128/4/3 135/4/3
f 138/3/3 135/3/3 137/3/3
f 140/4/3 137/4/3 136/4/3
f 140/4/3 138/4/3 137/4/3
f 141/4/3 138/4/3 140/4/3
f 142/4/3 128/4/3 138/4/3
f 142/4/3 138/4/3 141/4/3
f 143/4/3 141/4/3 140/4/3
f 143/4/3 140/4/3 139/4/3
f 144/4/3 141/4/3 143/4/3
f 147/3/3 146/3/3 145/3/3
f 148/3/3 146/3/3 147/3/3
f 151/6/3 150/6/3 149/6/3
f 152/6/3 150/6/3 151/6/3
f 153/6/3 151/6/3 149/6/3
f 153/2/3 152/2/3 151/2/3
f 154/2/3 152/2/3 153/2/3
f 155/6/3 153/6/3 149/6/3
f 155/6/3 154/6/3 153/6/3
f 156/6/3 154/6/3 155/6/3
f 159/6/3 158/6/3 157/6/3
f 160/6/3 158/6/3 159/6/3
f 161/6/3 159/6/3 157/6/3
f 161/2/3 160/2/3 159/2/3
f 162/2/3 160/2/3 161/2/3
f 163/6/3 161/6/3 157/6/3
f 163/6/3 162/6/3 161/6/3
f 164/6/3 162/6/3 163/6/3
f 165/6/4 166/6/4 167/6/4
f 167/6/4 166/6/4 168/6/4
f 165/6/4 167/6/4 169/6/4
f 167/2/4 168/2/4 169/2/4
f 169/2/4 168/2/4 170/2/4
f 165/6/4 169/6/4 171/6/4
f 169/6/4 170/6/4 171/6/4
f 171/6/4 170/6/4 172/6/4
f 173/6/4 174/6/4 175/6/4
f 175/6/4 174/6/4 176/6/4
f 173/6/4 175/6/4 177/6/4
f 175/2/4 176/2/4 177/2/4
f 177/2/4 176/2/4 178/2/4
f 173/6/4 177/6/4 179/6/4
f 177/6/4 178/6/4 179/6/4
f 179/6/4 178/6/4 180/6/4
f 181/3/4 182/3/4 183/3/4
f 183/3/4 182/3/4 184/3/4
f 185/4/4 186/4/4 187/4/4
f 187/4/4 186/4/4 188/4/4
f 188/4/4 186/4/4 189/4/4
f 188/3/4 189/3/4 190/3/4
f 189/4/4 186/4/4 191/4/4
f 190/3/4 189/3/4 191/3/4
f 190/4/4 191/4/4 192/4/4
f 191/4/4 186/4/4 193/4/4
f 192/4/4 191/4/4 193/4/4
f 192/3/4 193/3/4 195/3/4
f 193/4/4 186/4/4 196/4/4
f 195/3/4 193/3/4 196/3/4
f 194/4/4 195/4/4 198/4/4
f 195/4/4 196/4/4 198/4/4
f 198/4/4 196/4/4 199/4/4
f 196/4/4 186/4/4 200/4/4
f 199/4/4 196/4/4 200/4/4
f 198/4/4 199/4/4 201/4/4
f 197/4/4 198/4/4 201/4/4
f 201/4/4 199/4/4 202/4/4
f 203/4/4 204/4/4 206/4/4
f 206/4/4 204/4/4 207/4/4
f 207/4/4 204/4/4 208/4/4
f 205/6/4 206/6/4 210/6/4
f 206/6/4 207/6/4 210/6/4
f 210/6/4 207/6/4 211/6/4
f 205/6/4 210/6/4 212/6/4
f 210/2/4 211/2/4 212/2/4
f 211/6/4 207/6/4 213/6/4
f 212/2/4 211/2/4 213/2/4
f 205/6/4 212/6/4 214/6/4
f 212/6/4 213/6/4 214/6/4
f 213/6/4 207/6/4 215/6/4
f 214/6/4 213/6/4 215/6/4
f 208/4/4 209/4/4 216/4/4
f 215/6/4 207/6/4 216/6/4
f 207/4/4 208/4/4 216/4/4
f 215/4/4 216/4/4 218/4/4
f 216/4/4 209/4/4 219/4/4
f 218/4/4 216/4/4 219/4/4
f 217/6/4 218/6/4 220/6/4
f 218/6/4 219/6/4 220/6/4
f 220/6/4 219/6/4 221/6/4
f 217/6/4 220/6/4 222/6/4
f 220/2/4 221/2/4 222/2/4
f 221/6/4 219/6/4 223/6/4
f 222/2/4 221/2/4 223/2/4
f 217/6/4 222/6/4 224/6/4
f 222/6/4 223/6/4 224/6/4
f 223/6/4 219/6/4 225/6/4
f 224/6/4 223/6/4 225/6/4
f 219/4/4 209/4/4 226/4/4
f 225/6/4 219/6/4 226/6/4
f 226/4/4 209/4/4 227/4/4
f 227/4/4 209/4/4 228/4/4
f 225/4/4 226/4/4 229/4/4
f 226/4/4 227/4/4 229/4/4
f 229/4/4 227/4/4 230/4/4
f 235/6/5 232/6/5 231/6/5
f 236/6/5 232/6/5 235/6/5
f 237/6/5 234/6/5 233/6/5
f 238/6/5 234/6/5 237/6/5
f 243/6/5 240/6/5 239/6/5
f 244/6/5 240/6/5 243/6/5
f 245/6/5 242/6/5 241/6/5
f 246/6/5 242/6/5 245/6/5
f 253/4/5 248/4/5 247/4/5
f 256/4/5 250/4/5 249/4/5
f 257/4/5 250/4/5 256/4/5
f 260/4/5 252/4/5 251/4/5
f 261/4/5 252/4/5 260/4/5
f 263/4/5 259/4/5 258/4/5
f 263/4/5 262/4/5 261/4/5
f 263/4/5 261/4/5 260/4/5
f 263/4/5 260/4/5 259/4/5
f 263/4/5 255/4/5 254/4/5
f 263/4/5 258/4/5 257/4/5
f 263/4/5 257/4/5 256/4/5
f 263/4/5 256/4/5 255/4/5
f 263/4/5 253/4/5 247/4/5
f 263/4/5 254/4/5 253/4/5
f 264/4/5 262/4/5 263/4/5
f 265/5/5 264/5/5 263/5/5
f 266/4/5 262/4/5 264/4/5
f 266/5/5 264/5/5 265/5/5
f 267/4/5 266/4/5 265/4/5
f 267/4/5 262/4/5 266/4/5
f 268/4/5 262/4/5 267/4/5
f 269/4/5 262/4/5 268/4/5
f 270/4/5 262/4/5 269/4/5
f 271/4/5 262/4/5 270/4/5
f 272/4/5 262/4/5 271/4/5
f 273/4/5 262/4/5 272/4/5
f 274/4/5 262/4/5 273/4/5
f 275/4/5 262/4/5 274/4/5
f 276/4/5 262/4/5 275/4/5
f 277/4/5 267/4/5 265/4/5
f 278/4/5 267/4/5 277/4/5
f 279/4/5 271/4/5 270/4/5
f 280/4/5 271/4/5 279/4/5
f 281/4/5 275/4/5 274/4/5
f 282/4/5 275/4/5 281/4/5
f 283/4/6 284/4/6 287/4/6
f 287/4/6 284/4/6 288/4/6
f 285/4/6 286/4/6 289/4/6
f 289/4/6 286/4/6 290/4/6
f 291/4/6 292/4/6 295/4/6
f 295/4/6 292/4/6 296/4/6
f 293/4/6 294/4/6 297/4/6
f 297/4/6 294/4/6 298/4/6
f 299/4/6 300/4/6 301/4/6
f 301/4/6 300/4/6 302/4/6
f 302/4/6 300/4/6 303/4/6
f 303/4/6 300/4/6 304/4/6
f 305/4/6 306/4/6 307/4/6
f 307/4/6 306/4/6 308/4/6
f 308/4/6 306/4/6 313/4/6
f 313/4/6 306/4/6 314/4/6
f 311/4/6 312/4/6 315/4/6
f 309/4/6 310/4/6 315/4/6
f 310/4/6 311/4/6 315/4/6
f 315/4/6 312/4/6 316/4/6
f 317/4/6 318/4/6 319/4/6
f 319/4/6 318/4/6 320/4/6
f 317/4/6 319/4/6 321/4/6
f 320/4/6 318/4/6 322/4/6
f 317/4/6 321/4/6 323/4/6
f 321/4/6 322/4/6 323/4/6
f 322/4/6 318/4/6 324/4/6
f 323/4/6 322/4/6 324/4/6
f 325/3/6 326/3/6 327/3/6
f 327/3/6 326/3/6 328/3/6
f 325/3/6 327/3/6 329/3/6
f 327/4/6 328/4/6 329/4/6
f 328/3/6 326/3/6 330/3/6
f 329/4/6 328/4/6 330/4/6
f 325/3/6 329/3/6 331/3/6
f 329/3/6 330/3/6 331/3/6
f 330/3/6 326/3/6 332/3/6
f 331/3/6 330/3/6 332/3/6
