# MagicaVoxel @ Ephtracy

# group
o 

# material
mtllib Rock1.mtl
usemtl palette

# normals
vn -1 0 0
vn 1 0 0
vn 0 0 1
vn 0 0 -1
vn 0 -1 0
vn 0 1 0

# texcoords
vt 0.974609 0.5
vt 0.978516 0.5

# verts
v 0 2 0
v 0 2 -1
v 0 2.2 0
v 0 2.2 -1
v 0.1 2.2 -0.2
v 0.1 2.2 -0.4
v 0.1 2.2 -0.9
v 0.1 2.3 -0.2
v 0.1 2.3 -0.3
v 0.1 2.4 -0.2
v 0.1 2.4 -0.3
v 0.1 2.4 -0.4
v 0.1 2.4 -0.9
v 0.2 2.4 -0.2
v 0.2 2.4 -0.3
v 0.2 2.4 -0.4
v 0.2 2.4 -0.6
v 0.2 2.4 -0.8
v 0.2 2.4 -0.9
v 0.2 2.5 -0.6
v 0.2 2.5 -0.8
v 0.2 2.5 -0.9
v 0.2 2.6 -0.2
v 0.2 2.6 -0.8
v 0.3 2.6 -0.3
v 0.3 2.6 -0.7
v 0.3 2.8 -0.3
v 0.3 2.8 -0.7
v 0.5 2.2 -0.1
v 0.5 2.2 -0.2
v 0.5 2.3 -0.2
v 0.5 2.4 -0.2
v 0.5 2.5 -0.1
v 0.5 2.5 -0.2
v 0.7 2.3 -0.8
v 0.7 2.3 -0.9
v 0.7 2.4 -0.8
v 0.7 2.4 -0.9
v 0.5 2.3 -0.8
v 0.5 2.3 -0.9
v 0.5 2.4 -0.8
v 0.5 2.4 -0.9
v 0.7 2.4 -0.3
v 0.7 2.4 -0.5
v 0.7 2.5 -0.3
v 0.7 2.5 -0.5
v 0.7 2.6 -0.3
v 0.7 2.6 -0.7
v 0.7 2.8 -0.3
v 0.7 2.8 -0.7
v 0.8 2.4 -0.1
v 0.8 2.4 -0.3
v 0.8 2.4 -0.5
v 0.8 2.4 -0.7
v 0.8 2.4 -0.9
v 0.8 2.5 -0.1
v 0.8 2.5 -0.2
v 0.8 2.5 -0.3
v 0.8 2.5 -0.5
v 0.8 2.5 -0.7
v 0.8 2.5 -0.8
v 0.8 2.5 -0.9
v 0.8 2.6 -0.2
v 0.8 2.6 -0.8
v 0.9 2.2 -0.1
v 0.9 2.2 -0.5
v 0.9 2.2 -0.7
v 0.9 2.2 -0.9
v 0.9 2.3 -0.5
v 0.9 2.3 -0.7
v 0.9 2.4 -0.1
v 0.9 2.4 -0.9
v 1 2 0
v 1 2 -0.3
v 1 2 -0.8
v 1 2 -1
v 1 2.1 -0.1
v 1 2.1 -0.3
v 1 2.1 -0.8
v 1 2.1 -1
v 1 2.2 0
v 1 2.2 -0.1
v 1 2.2 -0.5
v 1 2.2 -0.7
v 1 2.2 -1
v 1 2.3 -0.5
v 1 2.3 -0.7
v 0 2 0
v 0 2.2 0
v 0.9 2 0
v 0.9 2.2 0
v 1 2 0
v 1 2.2 0
v 0.5 2.2 -0.1
v 0.5 2.5 -0.1
v 0.6 2.2 -0.1
v 0.6 2.3 -0.1
v 0.7 2.3 -0.1
v 0.7 2.4 -0.1
v 0.8 2.2 -0.1
v 0.8 2.4 -0.1
v 0.8 2.5 -0.1
v 0.9 2.2 -0.1
v 0.9 2.4 -0.1
v 0.1 2.2 -0.2
v 0.1 2.3 -0.2
v 0.1 2.4 -0.2
v 0.2 2.2 -0.2
v 0.2 2.3 -0.2
v 0.2 2.4 -0.2
v 0.2 2.6 -0.2
v 0.3 2.3 -0.2
v 0.3 2.5 -0.2
v 0.4 2.4 -0.2
v 0.4 2.5 -0.2
v 0.5 2.2 -0.2
v 0.5 2.3 -0.2
v 0.5 2.4 -0.2
v 0.5 2.5 -0.2
v 0.8 2.5 -0.2
v 0.8 2.6 -0.2
v 0.3 2.6 -0.3
v 0.3 2.8 -0.3
v 0.7 2.6 -0.3
v 0.7 2.8 -0.3
v 0.7 2.4 -0.5
v 0.7 2.5 -0.5
v 0.8 2.4 -0.5
v 0.8 2.5 -0.5
v 0.9 2.2 -0.5
v 0.9 2.3 -0.5
v 1 2.2 -0.5
v 1 2.3 -0.5
v 0.7 2.4 -0.3
v 0.7 2.5 -0.3
v 0.8 2.4 -0.3
v 0.8 2.5 -0.3
v 0.3 2.6 -0.7
v 0.3 2.8 -0.7
v 0.4 2.7 -0.7
v 0.4 2.8 -0.7
v 0.5 2.7 -0.7
v 0.5 2.8 -0.7
v 0.7 2.6 -0.7
v 0.7 2.8 -0.7
v 0.9 2.2 -0.7
v 0.9 2.3 -0.7
v 1 2.2 -0.7
v 1 2.3 -0.7
v 0.2 2.5 -0.8
v 0.2 2.6 -0.8
v 0.5 2.3 -0.8
v 0.5 2.4 -0.8
v 0.7 2.3 -0.8
v 0.7 2.4 -0.8
v 0.8 2.5 -0.8
v 0.8 2.6 -0.8
v 0.1 2.2 -0.9
v 0.1 2.4 -0.9
v 0.2 2.4 -0.9
v 0.2 2.5 -0.9
v 0.5 2.3 -0.9
v 0.5 2.4 -0.9
v 0.7 2.3 -0.9
v 0.7 2.4 -0.9
v 0.8 2.4 -0.9
v 0.8 2.5 -0.9
v 0.9 2.2 -0.9
v 0.9 2.4 -0.9
v 0 2 -1
v 0 2.2 -1
v 0.7 2 -1
v 0.7 2.1 -1
v 1 2 -1
v 1 2.1 -1
v 1 2.2 -1
v 0 2 0
v 0.9 2 0
v 1 2 0
v 0.9 2 -0.3
v 1 2 -0.3
v 0.7 2 -0.8
v 1 2 -0.8
v 0 2 -1
v 0.7 2 -1
v 1 2 -1
v 0.5 2.4 -0.8
v 0.7 2.4 -0.8
v 0.5 2.4 -0.9
v 0.7 2.4 -0.9
v 0.7 2.5 -0.3
v 0.8 2.5 -0.3
v 0.7 2.5 -0.5
v 0.8 2.5 -0.5
v 0 2.2 0
v 0.9 2.2 0
v 1 2.2 0
v 0.5 2.2 -0.1
v 0.6 2.2 -0.1
v 0.8 2.2 -0.1
v 0.9 2.2 -0.1
v 1 2.2 -0.1
v 0.1 2.2 -0.2
v 0.2 2.2 -0.2
v 0.5 2.2 -0.2
v 0.1 2.2 -0.4
v 0.9 2.2 -0.5
v 1 2.2 -0.5
v 0.9 2.2 -0.7
v 1 2.2 -0.7
v 0.1 2.2 -0.9
v 0.9 2.2 -0.9
v 0 2.2 -1
v 1 2.2 -1
v 0.9 2.3 -0.5
v 1 2.3 -0.5
v 0.9 2.3 -0.7
v 1 2.3 -0.7
v 0.5 2.3 -0.8
v 0.7 2.3 -0.8
v 0.5 2.3 -0.9
v 0.7 2.3 -0.9
v 0.8 2.4 -0.1
v 0.9 2.4 -0.1
v 0.1 2.4 -0.2
v 0.2 2.4 -0.2
v 0.1 2.4 -0.3
v 0.2 2.4 -0.3
v 0.7 2.4 -0.3
v 0.8 2.4 -0.3
v 0.1 2.4 -0.4
v 0.2 2.4 -0.4
v 0.7 2.4 -0.5
v 0.8 2.4 -0.5
v 0.2 2.4 -0.6
v 0.8 2.4 -0.7
v 0.2 2.4 -0.8
v 0.1 2.4 -0.9
v 0.2 2.4 -0.9
v 0.8 2.4 -0.9
v 0.9 2.4 -0.9
v 0.5 2.5 -0.1
v 0.8 2.5 -0.1
v 0.5 2.5 -0.2
v 0.8 2.5 -0.2
v 0.2 2.5 -0.8
v 0.8 2.5 -0.8
v 0.2 2.5 -0.9
v 0.8 2.5 -0.9
v 0.2 2.6 -0.2
v 0.8 2.6 -0.2
v 0.3 2.6 -0.3
v 0.7 2.6 -0.3
v 0.3 2.6 -0.7
v 0.7 2.6 -0.7
v 0.2 2.6 -0.8
v 0.8 2.6 -0.8
v 0.3 2.8 -0.3
v 0.7 2.8 -0.3
v 0.5 2.8 -0.4
v 0.6 2.8 -0.4
v 0.5 2.8 -0.5
v 0.6 2.8 -0.5
v 0.4 2.8 -0.6
v 0.5 2.8 -0.6
v 0.3 2.8 -0.7
v 0.4 2.8 -0.7
v 0.5 2.8 -0.7
v 0.7 2.8 -0.7

# faces
f 3/2/1 2/2/1 1/2/1
f 4/2/1 2/2/1 3/2/1
f 8/1/1 6/1/1 5/1/1
f 9/1/1 6/1/1 8/1/1
f 10/2/1 9/2/1 8/2/1
f 11/1/1 6/1/1 9/1/1
f 11/2/1 9/2/1 10/2/1
f 12/2/1 7/2/1 6/2/1
f 12/1/1 6/1/1 11/1/1
f 13/2/1 7/2/1 12/2/1
f 20/2/1 15/2/1 14/2/1
f 20/2/1 16/2/1 15/2/1
f 20/1/1 18/1/1 17/1/1
f 20/2/1 17/2/1 16/2/1
f 21/2/1 19/2/1 18/2/1
f 21/1/1 18/1/1 20/1/1
f 22/2/1 19/2/1 21/2/1
f 23/2/1 20/2/1 14/2/1
f 23/2/1 21/2/1 20/2/1
f 24/2/1 21/2/1 23/2/1
f 27/2/1 26/2/1 25/2/1
f 28/2/1 26/2/1 27/2/1
f 31/2/1 30/2/1 29/2/1
f 32/2/1 31/2/1 29/2/1
f 33/2/1 32/2/1 29/2/1
f 34/2/1 32/2/1 33/2/1
f 37/2/1 36/2/1 35/2/1
f 38/2/1 36/2/1 37/2/1
f 39/2/2 40/2/2 41/2/2
f 41/2/2 40/2/2 42/2/2
f 43/2/2 44/2/2 45/2/2
f 45/2/2 44/2/2 46/2/2
f 47/2/2 48/2/2 49/2/2
f 49/2/2 48/2/2 50/2/2
f 51/2/2 52/2/2 56/2/2
f 56/2/2 52/2/2 57/2/2
f 57/2/2 52/2/2 58/2/2
f 53/1/2 54/1/2 59/1/2
f 54/2/2 55/2/2 60/2/2
f 59/1/2 54/1/2 60/1/2
f 60/2/2 55/2/2 61/2/2
f 61/2/2 55/2/2 62/2/2
f 58/2/2 59/2/2 63/2/2
f 57/2/2 58/2/2 63/2/2
f 60/2/2 61/2/2 63/2/2
f 59/2/2 60/2/2 63/2/2
f 63/2/2 61/2/2 64/2/2
f 65/2/2 66/2/2 69/2/2
f 67/2/2 68/2/2 70/2/2
f 65/2/2 69/2/2 71/2/2
f 69/2/2 70/2/2 71/2/2
f 70/2/2 68/2/2 72/2/2
f 71/2/2 70/2/2 72/2/2
f 73/1/2 74/1/2 77/1/2
f 74/2/2 75/2/2 78/2/2
f 77/1/2 74/1/2 78/1/2
f 75/1/2 76/1/2 79/1/2
f 78/2/2 75/2/2 79/2/2
f 79/1/2 76/1/2 80/1/2
f 73/1/2 77/1/2 81/1/2
f 77/2/2 78/2/2 82/2/2
f 81/1/2 77/1/2 82/1/2
f 78/2/2 79/2/2 82/2/2
f 79/2/2 80/2/2 82/2/2
f 82/2/2 80/2/2 83/2/2
f 83/2/2 80/2/2 84/2/2
f 84/2/2 80/2/2 85/2/2
f 83/2/2 84/2/2 86/2/2
f 86/2/2 84/2/2 87/2/2
f 90/2/3 89/2/3 88/2/3
f 91/2/3 89/2/3 90/2/3
f 92/1/3 91/1/3 90/1/3
f 93/1/3 91/1/3 92/1/3
f 96/2/3 95/2/3 94/2/3
f 97/2/3 95/2/3 96/2/3
f 98/1/3 97/1/3 96/1/3
f 98/2/3 95/2/3 97/2/3
f 99/2/3 95/2/3 98/2/3
f 100/1/3 98/1/3 96/1/3
f 100/1/3 99/1/3 98/1/3
f 101/2/3 95/2/3 99/2/3
f 101/1/3 99/1/3 100/1/3
f 102/2/3 95/2/3 101/2/3
f 103/2/3 101/2/3 100/2/3
f 104/2/3 101/2/3 103/2/3
f 108/1/3 106/1/3 105/1/3
f 109/2/3 107/2/3 106/2/3
f 109/1/3 106/1/3 108/1/3
f 110/2/3 107/2/3 109/2/3
f 112/2/3 109/2/3 108/2/3
f 112/2/3 111/2/3 110/2/3
f 112/2/3 110/2/3 109/2/3
f 113/2/3 111/2/3 112/2/3
f 114/1/3 113/1/3 112/1/3
f 115/2/3 111/2/3 113/2/3
f 115/1/3 113/1/3 114/1/3
f 116/2/3 112/2/3 108/2/3
f 117/1/3 114/1/3 112/1/3
f 117/2/3 112/2/3 116/2/3
f 118/2/3 115/2/3 114/2/3
f 118/1/3 114/1/3 117/1/3
f 119/2/3 111/2/3 115/2/3
f 119/2/3 115/2/3 118/2/3
f 120/2/3 111/2/3 119/2/3
f 121/2/3 111/2/3 120/2/3
f 124/2/3 123/2/3 122/2/3
f 125/2/3 123/2/3 124/2/3
f 128/1/3 127/1/3 126/1/3
f 129/1/3 127/1/3 128/1/3
f 132/2/3 131/2/3 130/2/3
f 133/2/3 131/2/3 132/2/3
f 134/2/4 135/2/4 136/2/4
f 136/2/4 135/2/4 137/2/4
f 138/2/4 139/2/4 140/2/4
f 140/2/4 139/2/4 141/2/4
f 138/2/4 140/2/4 142/2/4
f 140/1/4 141/1/4 142/1/4
f 142/1/4 141/1/4 143/1/4
f 138/2/4 142/2/4 144/2/4
f 142/2/4 143/2/4 144/2/4
f 144/2/4 143/2/4 145/2/4
f 146/2/4 147/2/4 148/2/4
f 148/2/4 147/2/4 149/2/4
f 152/1/4 153/1/4 154/1/4
f 154/1/4 153/1/4 155/1/4
f 150/2/4 151/2/4 156/2/4
f 156/2/4 151/2/4 157/2/4
f 158/2/4 159/2/4 160/2/4
f 158/2/4 160/2/4 162/2/4
f 160/2/4 161/2/4 162/2/4
f 162/2/4 161/2/4 163/2/4
f 158/2/4 162/2/4 164/2/4
f 163/2/4 161/2/4 165/2/4
f 165/2/4 161/2/4 166/2/4
f 164/2/4 165/2/4 166/2/4
f 166/2/4 161/2/4 167/2/4
f 158/2/4 164/2/4 168/2/4
f 164/2/4 166/2/4 168/2/4
f 168/2/4 166/2/4 169/2/4
f 170/2/4 171/2/4 172/2/4
f 172/2/4 171/2/4 173/2/4
f 172/1/4 173/1/4 174/1/4
f 173/2/4 171/2/4 175/2/4
f 174/1/4 173/1/4 175/1/4
f 175/2/4 171/2/4 176/2/4
f 180/2/5 178/2/5 177/2/5
f 180/1/5 179/1/5 178/1/5
f 181/1/5 179/1/5 180/1/5
f 182/2/5 180/2/5 177/2/5
f 182/2/5 181/2/5 180/2/5
f 183/2/5 181/2/5 182/2/5
f 184/2/5 182/2/5 177/2/5
f 185/1/5 183/1/5 182/1/5
f 185/2/5 182/2/5 184/2/5
f 186/1/5 183/1/5 185/1/5
f 189/2/5 188/2/5 187/2/5
f 190/2/5 188/2/5 189/2/5
f 193/2/5 192/2/5 191/2/5
f 194/2/5 192/2/5 193/2/5
f 195/2/6 196/2/6 198/2/6
f 198/2/6 196/2/6 199/2/6
f 199/2/6 196/2/6 200/2/6
f 196/1/6 197/1/6 201/1/6
f 200/2/6 196/2/6 201/2/6
f 201/1/6 197/1/6 202/1/6
f 195/2/6 198/2/6 203/2/6
f 203/2/6 198/2/6 204/2/6
f 204/2/6 198/2/6 205/2/6
f 195/2/6 203/2/6 206/2/6
f 201/2/6 202/2/6 207/2/6
f 207/2/6 202/2/6 208/2/6
f 195/2/6 206/2/6 211/2/6
f 209/2/6 210/2/6 212/2/6
f 195/2/6 211/2/6 213/2/6
f 211/2/6 212/2/6 213/2/6
f 212/2/6 210/2/6 214/2/6
f 213/2/6 212/2/6 214/2/6
f 215/2/6 216/2/6 217/2/6
f 217/2/6 216/2/6 218/2/6
f 219/2/6 220/2/6 221/2/6
f 221/2/6 220/2/6 222/2/6
f 225/2/6 226/2/6 227/2/6
f 227/2/6 226/2/6 228/2/6
f 223/2/6 224/2/6 230/2/6
f 227/1/6 228/1/6 231/1/6
f 231/1/6 228/1/6 232/1/6
f 229/2/6 230/2/6 233/2/6
f 230/2/6 224/2/6 234/2/6
f 233/2/6 230/2/6 234/2/6
f 231/2/6 232/2/6 235/2/6
f 234/2/6 224/2/6 236/2/6
f 231/2/6 235/2/6 237/2/6
f 231/2/6 237/2/6 238/2/6
f 238/2/6 237/2/6 239/2/6
f 236/2/6 224/2/6 240/2/6
f 240/2/6 224/2/6 241/2/6
f 242/2/6 243/2/6 244/2/6
f 244/2/6 243/2/6 245/2/6
f 246/2/6 247/2/6 248/2/6
f 248/2/6 247/2/6 249/2/6
f 250/2/6 251/2/6 252/2/6
f 252/2/6 251/2/6 253/2/6
f 250/2/6 252/2/6 254/2/6
f 253/2/6 251/2/6 255/2/6
f 250/2/6 254/2/6 256/2/6
f 254/2/6 255/2/6 256/2/6
f 255/2/6 251/2/6 257/2/6
f 256/2/6 255/2/6 257/2/6
f 258/2/6 259/2/6 260/2/6
f 260/2/6 259/2/6 261/2/6
f 258/2/6 260/2/6 262/2/6
f 260/1/6 261/1/6 262/1/6
f 261/2/6 259/2/6 263/2/6
f 262/1/6 261/1/6 263/1/6
f 258/2/6 262/2/6 264/2/6
f 262/2/6 263/2/6 264/2/6
f 264/2/6 263/2/6 265/2/6
f 258/2/6 264/2/6 266/2/6
f 264/1/6 265/1/6 267/1/6
f 266/2/6 264/2/6 267/2/6
f 265/2/6 263/2/6 268/2/6
f 267/1/6 265/1/6 268/1/6
f 263/2/6 259/2/6 269/2/6
f 268/2/6 263/2/6 269/2/6
