# MagicaVoxel @ Ephtracy

# group
o 

# material
mtllib TreeGood.mtl
usemtl palette

# normals
vn -1 0 0
vn 1 0 0
vn 0 0 1
vn 0 0 -1
vn 0 -1 0
vn 0 1 0

# texcoords
vt 0.865234 0.5
vt 0.896484 0.5
vt 0.900391 0.5
vt 0.904297 0.5

# verts
v 0 2.5 0
v 0 2.5 -1
v 0 2.7 -0.1
v 0 2.7 -0.2
v 0 2.7 -0.6
v 0 2.7 -0.7
v 0 2.8 -0.1
v 0 2.8 -0.2
v 0 2.8 -0.6
v 0 2.8 -0.7
v 0 3.1 -0.4
v 0 3.1 -0.5
v 0 3.2 -0.3
v 0 3.2 -0.4
v 0 3.2 -0.5
v 0 3.3 -0.3
v 0 3.3 -0.4
v 0 3.3 -0.5
v 0 3.5 0
v 0 3.5 -1
v 0.3 2 -0.3
v 0.3 2 -0.7
v 0.3 2.5 -0.3
v 0.3 2.5 -0.7
v 0.7 2 -0.3
v 0.7 2 -0.7
v 0.7 2.5 -0.3
v 0.7 2.5 -0.7
v 1 2.5 0
v 1 2.5 -1
v 1 3 -0.6
v 1 3 -0.7
v 1 3.1 -0.6
v 1 3.1 -0.7
v 1 3.2 -0.4
v 1 3.2 -0.5
v 1 3.3 -0.4
v 1 3.3 -0.5
v 1 3.3 -0.6
v 1 3.4 -0.4
v 1 3.4 -0.5
v 1 3.4 -0.6
v 1 3.5 0
v 1 3.5 -1
v 0 2.5 0
v 0 3.5 0
v 0.3 2.7 0
v 0.3 2.8 0
v 0.3 2.9 0
v 0.4 2.7 0
v 0.4 2.8 0
v 0.4 2.9 0
v 0.5 2.7 0
v 0.5 2.8 0
v 0.7 3.2 0
v 0.7 3.3 0
v 0.8 3.2 0
v 0.8 3.3 0
v 1 2.5 0
v 1 3.5 0
v 0.3 2 -0.3
v 0.3 2.5 -0.3
v 0.7 2 -0.3
v 0.7 2.5 -0.3
v 0.3 2 -0.7
v 0.3 2.5 -0.7
v 0.7 2 -0.7
v 0.7 2.5 -0.7
v 0 2.5 -1
v 0 3.5 -1
v 0.2 2.7 -1
v 0.2 2.8 -1
v 0.2 2.9 -1
v 0.3 2.7 -1
v 0.3 2.8 -1
v 0.3 2.9 -1
v 0.4 2.7 -1
v 0.4 2.8 -1
v 0.7 3.2 -1
v 0.7 3.3 -1
v 0.8 3.2 -1
v 0.8 3.3 -1
v 1 2.5 -1
v 1 3.5 -1
v 0.3 2 -0.3
v 0.7 2 -0.3
v 0.3 2 -0.7
v 0.7 2 -0.7
v 0 2.5 0
v 1 2.5 0
v 0.3 2.5 -0.3
v 0.7 2.5 -0.3
v 0.3 2.5 -0.7
v 0.7 2.5 -0.7
v 0 2.5 -1
v 1 2.5 -1
v 0 3.5 0
v 1 3.5 0
v 0.6 3.5 -0.2
v 0.7 3.5 -0.2
v 0.8 3.5 -0.2
v 0.6 3.5 -0.3
v 0.7 3.5 -0.3
v 0.8 3.5 -0.3
v 0.7 3.5 -0.4
v 0.8 3.5 -0.4
v 0.4 3.5 -0.6
v 0.5 3.5 -0.6
v 0.5 3.5 -0.7
v 0.6 3.5 -0.7
v 0.4 3.5 -0.8
v 0.5 3.5 -0.8
v 0.6 3.5 -0.8
v 0 3.5 -1
v 1 3.5 -1

# faces
f 3/4/1 2/4/1 1/4/1
f 4/4/1 2/4/1 3/4/1
f 5/4/1 2/4/1 4/4/1
f 6/4/1 2/4/1 5/4/1
f 7/4/1 3/4/1 1/4/1
f 7/3/1 4/3/1 3/3/1
f 8/4/1 5/4/1 4/4/1
f 8/3/1 4/3/1 7/3/1
f 9/3/1 6/3/1 5/3/1
f 9/4/1 5/4/1 8/4/1
f 10/4/1 2/4/1 6/4/1
f 10/3/1 6/3/1 9/3/1
f 11/4/1 9/4/1 8/4/1
f 11/4/1 8/4/1 7/4/1
f 11/4/1 10/4/1 9/4/1
f 12/4/1 10/4/1 11/4/1
f 13/4/1 11/4/1 7/4/1
f 14/2/1 12/2/1 11/2/1
f 14/4/1 11/4/1 13/4/1
f 15/4/1 10/4/1 12/4/1
f 15/2/1 12/2/1 14/2/1
f 16/2/1 14/2/1 13/2/1
f 16/4/1 13/4/1 7/4/1
f 17/3/1 15/3/1 14/3/1
f 17/2/1 14/2/1 16/2/1
f 18/4/1 10/4/1 15/4/1
f 18/3/1 15/3/1 17/3/1
f 19/4/1 7/4/1 1/4/1
f 19/4/1 17/4/1 16/4/1
f 19/4/1 18/4/1 17/4/1
f 19/4/1 16/4/1 7/4/1
f 20/4/1 2/4/1 10/4/1
f 20/4/1 18/4/1 19/4/1
f 20/4/1 10/4/1 18/4/1
f 23/1/1 22/1/1 21/1/1
f 24/1/1 22/1/1 23/1/1
f 25/1/2 26/1/2 27/1/2
f 27/1/2 26/1/2 28/1/2
f 29/4/2 30/4/2 31/4/2
f 31/4/2 30/4/2 32/4/2
f 29/4/2 31/4/2 33/4/2
f 31/3/2 32/3/2 33/3/2
f 32/4/2 30/4/2 34/4/2
f 33/3/2 32/3/2 34/3/2
f 29/4/2 33/4/2 35/4/2
f 33/4/2 34/4/2 35/4/2
f 35/4/2 34/4/2 36/4/2
f 29/4/2 35/4/2 37/4/2
f 35/2/2 36/2/2 37/2/2
f 36/4/2 34/4/2 38/4/2
f 37/2/2 36/2/2 38/2/2
f 38/4/2 34/4/2 39/4/2
f 29/4/2 37/4/2 40/4/2
f 37/3/2 38/3/2 40/3/2
f 38/2/2 39/2/2 41/2/2
f 40/3/2 38/3/2 41/3/2
f 39/4/2 34/4/2 42/4/2
f 41/2/2 39/2/2 42/2/2
f 40/4/2 41/4/2 43/4/2
f 29/4/2 40/4/2 43/4/2
f 41/4/2 42/4/2 43/4/2
f 34/4/2 30/4/2 44/4/2
f 43/4/2 42/4/2 44/4/2
f 42/4/2 34/4/2 44/4/2
f 47/4/3 46/4/3 45/4/3
f 48/4/3 46/4/3 47/4/3
f 49/4/3 46/4/3 48/4/3
f 50/4/3 47/4/3 45/4/3
f 50/3/3 48/3/3 47/3/3
f 51/2/3 49/2/3 48/2/3
f 51/3/3 48/3/3 50/3/3
f 52/4/3 46/4/3 49/4/3
f 52/2/3 49/2/3 51/2/3
f 53/2/3 51/2/3 50/2/3
f 53/4/3 50/4/3 45/4/3
f 54/4/3 52/4/3 51/4/3
f 54/2/3 51/2/3 53/2/3
f 55/4/3 46/4/3 52/4/3
f 55/4/3 52/4/3 54/4/3
f 55/4/3 54/4/3 53/4/3
f 56/4/3 46/4/3 55/4/3
f 57/4/3 55/4/3 53/4/3
f 57/3/3 56/3/3 55/3/3
f 58/4/3 46/4/3 56/4/3
f 58/3/3 56/3/3 57/3/3
f 59/4/3 53/4/3 45/4/3
f 59/4/3 57/4/3 53/4/3
f 59/4/3 58/4/3 57/4/3
f 60/4/3 46/4/3 58/4/3
f 60/4/3 58/4/3 59/4/3
f 63/1/3 62/1/3 61/1/3
f 64/1/3 62/1/3 63/1/3
f 65/1/4 66/1/4 67/1/4
f 67/1/4 66/1/4 68/1/4
f 69/4/4 70/4/4 71/4/4
f 71/4/4 70/4/4 72/4/4
f 72/4/4 70/4/4 73/4/4
f 69/4/4 71/4/4 74/4/4
f 71/3/4 72/3/4 74/3/4
f 72/2/4 73/2/4 75/2/4
f 74/3/4 72/3/4 75/3/4
f 73/4/4 70/4/4 76/4/4
f 75/2/4 73/2/4 76/2/4
f 74/2/4 75/2/4 77/2/4
f 69/4/4 74/4/4 77/4/4
f 75/4/4 76/4/4 78/4/4
f 77/2/4 75/2/4 78/2/4
f 76/4/4 70/4/4 79/4/4
f 78/4/4 76/4/4 79/4/4
f 77/4/4 78/4/4 79/4/4
f 79/4/4 70/4/4 80/4/4
f 77/4/4 79/4/4 81/4/4
f 79/3/4 80/3/4 81/3/4
f 80/4/4 70/4/4 82/4/4
f 81/3/4 80/3/4 82/3/4
f 69/4/4 77/4/4 83/4/4
f 77/4/4 81/4/4 83/4/4
f 81/4/4 82/4/4 83/4/4
f 82/4/4 70/4/4 84/4/4
f 83/4/4 82/4/4 84/4/4
f 87/1/5 86/1/5 85/1/5
f 88/1/5 86/1/5 87/1/5
f 91/4/5 90/4/5 89/4/5
f 92/4/5 90/4/5 91/4/5
f 93/4/5 91/4/5 89/4/5
f 94/4/5 90/4/5 92/4/5
f 95/4/5 93/4/5 89/4/5
f 95/4/5 94/4/5 93/4/5
f 96/4/5 90/4/5 94/4/5
f 96/4/5 94/4/5 95/4/5
f 97/4/6 98/4/6 99/4/6
f 99/4/6 98/4/6 100/4/6
f 100/4/6 98/4/6 101/4/6
f 97/4/6 99/4/6 102/4/6
f 99/2/6 100/2/6 102/2/6
f 100/3/6 101/3/6 103/3/6
f 102/2/6 100/2/6 103/2/6
f 101/4/6 98/4/6 104/4/6
f 103/3/6 101/3/6 104/3/6
f 102/4/6 103/4/6 105/4/6
f 103/2/6 104/2/6 105/2/6
f 104/4/6 98/4/6 106/4/6
f 105/2/6 104/2/6 106/2/6
f 102/4/6 105/4/6 107/4/6
f 97/4/6 102/4/6 107/4/6
f 105/4/6 106/4/6 107/4/6
f 107/4/6 106/4/6 108/4/6
f 107/2/6 108/2/6 109/2/6
f 108/4/6 106/4/6 109/4/6
f 109/4/6 106/4/6 110/4/6
f 97/4/6 107/4/6 111/4/6
f 107/2/6 109/2/6 111/2/6
f 109/3/6 110/3/6 112/3/6
f 111/2/6 109/2/6 112/2/6
f 110/4/6 106/4/6 113/4/6
f 112/3/6 110/3/6 113/3/6
f 111/4/6 112/4/6 114/4/6
f 97/4/6 111/4/6 114/4/6
f 112/4/6 113/4/6 114/4/6
f 106/4/6 98/4/6 115/4/6
f 114/4/6 113/4/6 115/4/6
f 113/4/6 106/4/6 115/4/6
